<svg xmlns="http://www.w3.org/2000/svg" width="256" height="20" viewBox="0 0 256 20" fill="none">
<path d="M245.322 10.4451C245.322 10.4451 244.982 10.3601 244.94 10.7001C244.94 10.8701 244.982 10.9981 245.152 11.1251C245.194 11.1671 245.237 11.1671 245.279 11.1671C245.916 11.2101 246.68 10.1061 247.189 9.25712C247.401 8.87412 247.486 8.74712 247.613 8.74712C247.655 8.74712 247.825 8.70412 248.037 9.08712C248.292 9.55412 249.65 10.9131 251.347 10.5301C251.432 10.3601 251.092 10.2331 250.923 10.1061C250.923 10.1061 250.201 9.55412 251.135 9.29912C252.026 9.08712 252.492 9.42612 253.256 8.78912C253.299 8.57712 252.832 8.49212 252.832 8.49212C252.832 8.49212 252.28 8.15212 253.85 7.68512C254.614 7.47312 254.614 7.34512 254.487 7.26112C254.359 7.17612 253.978 7.00612 254.529 6.66612C255.081 6.28412 255.463 5.81612 255.42 5.64612C255.335 5.52012 255.081 5.56212 254.784 5.73212C254.444 5.90212 254.02 5.81712 253.765 5.43512C253.553 5.05212 253.299 5.13712 253.002 5.35012C252.705 5.56312 252.111 5.90212 251.814 5.35012C251.644 4.71312 251.729 4.88312 252.195 3.99012C252.662 3.14212 252.747 2.42012 252.747 2.29212C252.747 2.16412 252.662 2.08012 252.238 2.29212C251.856 2.37712 251.814 0.509118 251.814 0.254118C251.814 0.254118 251.814 -0.255882 251.517 0.169118C251.262 0.466118 250.329 1.35812 250.031 1.48512C249.734 1.57012 249.31 1.31512 249.353 0.933118C249.353 0.551118 249.098 0.679118 249.013 0.933118C248.928 1.14612 248.207 3.43912 248.037 3.56612C247.867 3.69312 247.74 4.03312 247.443 3.48112C247.146 2.92912 246.595 1.57112 246.128 2.25012C246.001 2.12212 245.152 0.976118 244.431 0.933118C244.346 1.06112 244.516 1.40012 244.643 1.48512C244.77 1.65512 244.77 2.12212 244.643 2.46212C244.516 2.80212 244.516 3.22612 244.685 3.65212C244.77 3.86312 244.643 4.20312 244.091 4.24612C243.54 4.33112 243.625 4.45812 243.879 4.79812C244.091 5.09512 244.982 5.81712 245.194 6.11412C245.407 6.36912 245.152 6.70912 244.77 6.75112C244.388 6.79312 244.006 6.66612 243.879 6.87812C243.837 7.09112 244.176 7.00612 244.303 7.21812C244.303 7.21812 245.025 8.53512 246.001 8.49212C246.977 8.40712 247.019 8.53512 246.892 8.95912C246.807 9.21412 246.043 10.3611 245.322 10.4451ZM46.1118 16.7731C45.7308 18.0471 45.0948 18.6411 44.0758 18.6411H40.2578C40.2578 18.0041 40.2578 16.0931 40.2998 14.3521C40.2998 13.2481 40.3418 11.2951 40.3418 10.9981H45.1788V9.42612H40.3418V1.82612H43.3118C44.3308 1.82612 44.7978 2.20712 45.0938 3.18412L46.0698 6.49612C46.4948 6.45412 46.8768 6.45412 47.2998 6.36912V0.806118H34.7428V1.82612H36.4828V18.6401H31.9428V1.82512H33.8938V0.805118H26.2568V1.82512H28.1658V9.51112H22.3958V1.82512H24.3048V0.805118H1.05184L0.839844 6.41212C1.30684 6.45512 1.64584 6.54012 2.11284 6.54012L3.08884 2.97312C3.38584 1.95312 3.68284 1.78312 4.82884 1.78312H6.77984V18.6001H4.14984V19.6191H13.2298V18.5991H10.5558V1.78412H12.5928C13.7808 1.78412 13.9928 2.03812 14.2898 2.97312L15.2658 6.54012C15.7328 6.49712 16.0718 6.41212 16.5388 6.41212V1.78312H18.5758V18.5991H16.4118V19.6181H24.3038V18.5981H22.3938V10.9131H28.1228V18.5991H26.2128V19.6181H47.9368L48.1488 13.8001L46.9188 13.5881L46.1118 16.7731ZM62.9148 13.0781H64.8668V18.2581C64.2298 18.4711 63.5088 18.6411 62.7868 18.6411C60.1568 18.6411 58.3748 16.6881 58.3748 10.0211C58.3748 5.64712 59.4778 1.74112 62.7028 1.74112C65.0368 1.74112 65.8848 3.73612 66.7328 6.92112L68.0918 6.62412V1.61312C67.5398 1.27312 65.7578 0.550118 62.6598 0.550118C57.4398 0.550118 54.2998 5.68812 54.2998 10.5721C54.2998 16.9421 57.9498 19.9991 62.5748 19.9991C63.6778 19.9991 65.7148 19.5741 66.8598 19.1491L68.5998 19.0221V12.1011H62.9568L62.9148 13.0781ZM80.1418 16.7301C79.6748 18.1311 79.1228 18.6411 78.0618 18.6411H75.3048C75.4318 18.4711 75.4318 16.6031 75.4318 1.82512H77.5108V0.805118H69.6608V1.82512H71.6128V18.6411H69.5768V19.6611H81.9668L82.3908 13.6311C81.9658 13.5881 81.6268 13.5881 81.2018 13.5031L80.1418 16.7301ZM90.3668 0.510118C84.9368 0.510118 82.5598 5.13812 82.5598 10.4461C82.5598 16.8161 85.7848 19.9591 90.3668 19.9591C95.7978 19.9591 98.2168 15.3291 98.2168 10.0221C98.1748 4.03412 95.2468 0.510118 90.3668 0.510118ZM90.3668 18.6851C88.6698 18.6851 86.5908 17.1981 86.5908 10.2351C86.5908 3.86512 88.1178 1.82612 90.3668 1.82612C91.8948 1.82612 94.1858 2.84612 94.1858 10.2761C94.1438 16.9861 92.2758 18.6851 90.3668 18.6851ZM109.079 10.0221V9.85212C111.158 9.25712 112.728 7.21912 112.728 5.69012C112.728 2.67512 110.649 0.807118 106.66 0.807118H98.8528V1.82712H100.848V18.6401H98.8528V19.6601H106.788C110.776 19.6601 113.11 17.6211 113.11 14.6901C113.11 12.4401 111.413 10.5301 109.079 10.0201M104.666 1.82412H106.618C108.018 1.82412 109.121 2.92812 109.121 5.98612C109.121 7.81212 108.358 9.42612 107.042 9.42612H104.666V1.82412ZM106.83 18.6401H104.921C104.666 18.6401 104.666 18.3851 104.666 18.0031V10.5301H106.873C108.697 10.5301 109.249 12.2711 109.249 14.6501C109.249 17.9201 108.146 18.6411 106.83 18.6411M125.499 16.7731C125.118 18.0471 124.481 18.6411 123.505 18.6411H119.686C119.686 18.0041 119.686 16.0931 119.729 14.3521C119.729 13.2481 119.771 11.2951 119.771 10.9981H124.608V9.42612H119.771V1.82612H122.741C123.76 1.82612 124.226 2.20712 124.524 3.18412L125.499 6.49612C125.924 6.45412 126.263 6.45412 126.73 6.36912V0.806118H114.213V1.82612H115.953V18.6401H113.534V19.6601H127.324L127.536 13.8421L126.306 13.5871L125.499 16.7731ZM171.918 0.806118H158.977V1.82612C160.971 1.82612 161.31 2.33512 161.31 3.39612V12.7391C158.904 8.77074 156.514 4.79304 154.14 0.806118H149.175V1.69812C149.982 1.95212 150.576 2.54712 151.042 3.18412V16.7731C151.042 18.3861 150.194 18.5991 149.345 18.6411H148.412L142.938 0.806118H140.35C139.629 3.65112 135.513 16.4761 135.513 16.4761C135.131 17.6641 134.495 18.6841 133.264 18.6841H133.222V19.6601H139.247V18.6411H139.035C137.38 18.5141 136.871 18.4711 136.871 17.2821C136.871 16.9001 136.913 16.5181 136.998 15.9661L137.974 12.5691H142.556L144.296 18.6411H142.217V19.6611H154.819V18.6841C152.485 18.6411 152.358 18.0041 152.358 16.8151V5.18012C155.285 10.0201 158.128 14.8621 161.056 19.6601H162.541V3.39612C162.541 2.16512 163.305 1.86812 164.662 1.82612H166.614V18.6401H164.535V19.6601H172.13C177.688 19.6601 180.871 15.2851 180.871 10.0201C180.913 4.62712 177.264 0.806118 171.918 0.806118ZM138.271 11.5501L140.265 4.62812L142.259 11.5501H138.271ZM171.112 18.6411C170.645 18.6411 170.475 18.3441 170.475 17.7911V1.78412C174.464 1.78412 176.628 4.28912 176.628 10.1921C176.628 16.3071 174.93 18.6411 171.112 18.6411ZM228.732 18.6421V1.82512H230.471V0.805118H222.876V1.82512H224.658V18.6411H221.688L216.215 0.806118H213.627C212.948 3.65112 208.79 16.4761 208.79 16.4761C208.45 17.5801 207.856 18.5141 206.795 18.6411H205.31L204.292 1.82512H206.456V0.805118H200.558L196.994 10.8281C195.806 7.51512 194.575 4.11812 193.472 0.806118H187.235V1.82612C189.187 1.82612 189.314 2.12212 189.314 3.99112V4.20312C189.144 7.55812 188.763 13.7581 188.508 17.2401C188.466 18.0041 187.829 18.6411 186.132 18.7261V19.6601H192.751V18.6841C190.375 18.6411 189.993 17.8341 189.993 17.2401C189.993 16.9001 190.078 14.4801 190.163 12.1021C190.29 8.83212 190.375 6.75112 190.502 3.43912V3.56612C192.115 8.06712 193.812 12.6541 195.382 17.1551L195.976 16.8581C197.546 12.6111 199.073 8.49212 200.685 4.28812L201.407 18.5981H199.582V19.6181H212.439V18.5981H212.269C210.614 18.4711 210.105 18.4281 210.105 17.2401C210.105 16.8581 210.147 16.4751 210.232 15.9231L211.208 12.5261H215.833L217.615 18.5991H215.536V19.6181H230.471V18.5981H228.732V18.6421ZM211.547 11.5511L213.542 4.62912L215.536 11.5511H211.547ZM243.031 13.5041L241.97 16.7311C241.503 18.1321 240.951 18.6421 239.891 18.6421H237.133C237.26 18.4721 237.26 16.6041 237.26 1.82612H239.339V0.805118H231.49V1.82512H233.441V18.6411H231.405V19.6611H243.794L244.219 13.6311C243.794 13.5881 243.455 13.5891 243.031 13.5041Z" fill="#A0A3A4"/>
</svg>