<svg xmlns="http://www.w3.org/2000/svg" width="73" height="20" viewBox="0 0 73 20" fill="none">
  <path d="M21.1659 4.88845V5.92413C20.576 5.15341 19.4836 4.62599 18.2187 4.62599C15.229 4.62599 13.0017 7.28727 13.0017 10.4126C13.0017 13.623 15.2065 16.1985 18.2187 16.1985C19.4836 16.1985 20.576 15.6919 21.1659 14.8778V15.911H24.8956V4.88845H21.1659ZM26.1838 0.00416606V15.911H30.0476V10.0327C30.0476 8.8887 30.5934 8.20797 31.4658 8.20797C32.3382 8.20797 32.7982 8.79955 32.7982 9.90105V15.9068H36.6603V8.97619C36.6603 6.29325 35.2205 4.62182 32.9057 4.62182C32.3547 4.60212 31.8068 4.71289 31.3067 4.94511C30.8067 5.17841 30.3676 5.52669 30.026 5.96246V0L26.1838 0.00416606ZM61.5189 10.4051C61.5189 13.7047 59.0091 16.1918 55.6694 16.1918C52.3297 16.1918 49.8199 13.7047 49.8199 10.4051C49.8199 7.10646 52.3297 4.61933 55.6694 4.61933C59.0091 4.61933 61.5189 7.10646 61.5189 10.4051ZM49.165 10.4051C49.165 13.7047 46.6552 16.1918 43.3172 16.1918C39.98 16.1918 37.4678 13.7047 37.4678 10.4051C37.4678 7.10646 39.9775 4.61933 43.3172 4.61933C46.6569 4.61933 49.165 7.10646 49.165 10.4051ZM0.519531 4.88095L5.1891 15.9927L3.50925 19.9971H7.61137L13.8316 4.88179H9.75117L7.21891 11.3483L4.70914 4.87929L0.519531 4.88095ZM19.0036 12.6715C18.7057 12.6779 18.4095 12.6239 18.133 12.5127C17.8565 12.4016 17.6053 12.2357 17.3946 12.0249C17.1825 11.8133 17.0148 11.5615 16.9013 11.2842C16.7879 11.0069 16.7309 10.7097 16.7339 10.4101C16.7307 10.1105 16.7874 9.81319 16.9008 9.53575C17.0141 9.25831 17.1817 9.00631 17.3938 8.79455C17.6049 8.58422 17.8563 8.41862 18.1329 8.30767C18.4095 8.19672 18.7057 8.14269 19.0036 8.14881C19.2997 8.14496 19.5935 8.20091 19.8674 8.3133C20.1413 8.42568 20.3897 8.59221 20.5977 8.80288C20.8075 9.014 20.9731 9.26494 21.0845 9.54096C21.196 9.81698 21.2512 10.1125 21.2468 10.4101C21.2501 10.7075 21.1945 11.0026 21.0831 11.2784C20.9717 11.5541 20.8067 11.805 20.5977 12.0166C20.3892 12.2266 20.1407 12.3928 19.8669 12.5053C19.5931 12.6178 19.2996 12.6743 19.0036 12.6715ZM45.4995 10.4101C45.5061 10.1187 45.4544 9.82879 45.3475 9.55753C45.2406 9.28626 45.0807 9.03905 44.8771 8.83038C44.6733 8.62428 44.4303 8.46116 44.1623 8.35067C43.8944 8.24018 43.607 8.18457 43.3172 8.18714C43.0272 8.18314 42.7394 8.23809 42.4713 8.34866C42.2031 8.45923 41.9603 8.62312 41.7574 8.83038C41.5526 9.03821 41.3919 9.28528 41.2849 9.55674C41.178 9.82821 41.1269 10.1185 41.1349 10.4101C41.1281 10.7014 41.1797 10.9911 41.2866 11.2621C41.3935 11.5332 41.5536 11.78 41.7574 11.9882C41.9607 12.1948 42.2037 12.3581 42.4717 12.4684C42.7398 12.5786 43.0274 12.6336 43.3172 12.6298C43.6072 12.6345 43.8951 12.5801 44.1632 12.4697C44.4314 12.3594 44.6743 12.1956 44.8771 11.9882C45.0817 11.7806 45.2422 11.5338 45.3492 11.2627C45.4562 10.9915 45.5073 10.7015 45.4995 10.4101ZM57.8517 10.4101C57.8587 10.1186 57.8073 9.8286 57.7004 9.55727C57.5935 9.28594 57.4333 9.03877 57.2293 8.83038C57.0261 8.62351 56.7831 8.45988 56.5151 8.34934C56.247 8.23879 55.9593 8.18362 55.6694 8.18714C55.3794 8.18314 55.0916 8.23809 54.8234 8.34866C54.5553 8.45923 54.3124 8.62312 54.1096 8.83038C53.9048 9.03821 53.7441 9.28528 53.6371 9.55674C53.5301 9.82821 53.4791 10.1185 53.4871 10.4101C53.4803 10.7014 53.5319 10.9911 53.6388 11.2621C53.7457 11.5332 53.9057 11.78 54.1096 11.9882C54.3129 12.1948 54.5559 12.3581 54.8239 12.4684C55.092 12.5786 55.3796 12.6336 55.6694 12.6298C55.9594 12.6345 56.2472 12.5801 56.5154 12.4697C56.7836 12.3594 57.0265 12.1956 57.2293 11.9882C57.4338 11.7806 57.5944 11.5338 57.7014 11.2627C57.8083 10.9915 57.8595 10.7015 57.8517 10.4101ZM61.9988 13.5764C61.9944 13.9093 62.0561 14.2399 62.1804 14.5488C62.3047 14.8577 62.4891 15.1389 62.7229 15.3761C62.9559 15.6115 63.2338 15.7978 63.5401 15.9239C63.8464 16.05 64.1749 16.1133 64.5061 16.1101C64.8486 16.1132 65.1882 16.0474 65.5048 15.9168C65.8215 15.7861 66.1086 15.5932 66.3492 15.3494C66.5919 15.1051 66.7835 14.8151 66.9131 14.4961C67.0427 14.1772 67.1076 13.8356 67.1042 13.4914C67.1099 13.1581 67.049 12.827 66.9249 12.5177C66.8009 12.2083 66.6162 11.9269 66.3817 11.69C66.1481 11.4547 65.8694 11.2689 65.5623 11.1438C65.2552 11.0186 64.926 10.9567 64.5944 10.9617C64.2524 10.961 63.9137 11.0281 63.5979 11.1593C63.282 11.2904 62.9954 11.483 62.7546 11.7258C62.5121 11.9697 62.3203 12.2591 62.1902 12.5774C62.0601 12.8957 61.9942 13.2366 61.9963 13.5805L61.9988 13.5764ZM67.4983 0.00833212L63.3853 9.99021H67.9699L72.0712 0.00333285L67.4983 0.00833212Z" fill="#A0A3A4"/>
</svg>