<svg xmlns="http://www.w3.org/2000/svg" width="106" height="20" viewBox="0 0 106 20" fill="none">
  <path d="M3.99153 0V7.019C4.66853 6.412 5.36153 5.909 6.03953 5.563C6.79211 5.22425 7.60927 5.05297 8.43453 5.061C10.3265 5.061 11.8715 5.737 13.1565 7.106C14.4405 8.475 15.1355 10.26 15.1355 12.513C15.1355 14.662 14.4585 16.378 13.1555 17.816C11.7855 19.272 10.2225 19.966 8.43553 19.966C7.56653 19.966 6.88953 19.792 6.10853 19.532C5.43153 19.272 4.73753 18.752 4.06053 18.076V19.532H0.519531V0H3.99153ZM7.68853 8.406C6.57753 8.406 5.64053 8.752 4.85853 9.515C4.07853 10.277 3.74853 11.317 3.74853 12.513C3.74853 13.795 4.09553 14.835 4.85853 15.598C5.62153 16.361 6.47353 16.811 7.68853 16.811C8.79853 16.811 9.66753 16.378 10.4485 15.598C11.2295 14.818 11.5585 13.795 11.5585 12.6C11.5585 11.386 11.2125 10.381 10.4485 9.601C9.73653 8.769 8.79853 8.406 7.68853 8.406ZM27.7035 5.511H31.2275V19.653H27.7035V18.111C27.0265 18.787 26.3325 19.22 25.6555 19.567C24.9132 19.8524 24.1248 19.9992 23.3295 20C21.5235 20 19.8925 19.324 18.6075 17.85C17.2365 16.395 16.6285 14.697 16.6285 12.547C16.6285 10.329 17.3055 8.613 18.6085 7.14C19.8925 5.771 21.4375 5.095 23.3285 5.095C24.1975 5.095 24.9435 5.269 25.7245 5.598C26.5055 5.944 27.1825 6.378 27.7725 7.054V5.51L27.7035 5.511ZM23.9195 8.405C22.8085 8.405 21.9405 8.839 21.1595 9.619C20.4347 10.4486 20.0394 11.5154 20.0485 12.617C20.0485 13.83 20.3955 14.835 21.1585 15.615C21.9235 16.395 22.7735 16.828 23.9185 16.828C24.4386 16.8354 24.9542 16.7309 25.4304 16.5216C25.9066 16.3123 26.3322 16.0031 26.6785 15.615C27.4605 14.835 27.7905 13.813 27.7905 12.53C27.7905 11.317 27.4425 10.312 26.6795 9.532C25.9845 8.769 25.0475 8.405 23.9195 8.405ZM33.5365 5.511H36.6265V7.314C36.9735 6.638 37.4075 6.1 37.9115 5.702C38.4145 5.355 39.0215 5.199 39.7165 5.199C40.1505 5.199 40.6535 5.303 41.1745 5.546L40.0635 8.63C39.6295 8.456 39.2825 8.283 39.0225 8.283C38.5185 8.283 37.9805 8.63 37.6505 9.323C37.3035 9.999 37.0435 11.299 37.0435 13.257V19.687H33.5195V5.51L33.5365 5.511ZM55.4395 8.336L52.4375 9.948C51.9335 9.342 51.3265 9.012 50.8235 8.735C50.3195 8.475 49.6075 8.388 48.9305 8.388C47.5605 8.388 46.5355 8.822 45.6675 9.602C44.7995 10.382 44.4525 11.404 44.4525 12.686C44.4525 13.9 44.8865 14.905 45.6675 15.616C46.4485 16.396 47.4725 16.724 48.7575 16.724C50.3715 16.724 51.5875 16.222 52.4545 15.113L55.2845 17.002C53.7395 18.978 51.5865 20 48.8445 20C46.3615 20 44.3655 19.22 42.9945 17.782C41.6235 16.343 40.8595 14.61 40.8595 12.634C40.8595 11.265 41.2065 9.983 41.9005 8.874C42.5775 7.764 43.5155 6.829 44.8345 6.118C46.0495 5.442 47.4205 5.078 48.9655 5.078C50.3365 5.078 51.6215 5.338 52.7325 5.945C53.8425 6.551 54.7625 7.296 55.4405 8.336M56.9875 0H60.5115V6.863C61.1266 6.31255 61.816 5.85136 62.5595 5.493C63.2365 5.233 64.0175 5.061 64.7115 5.061C66.0835 5.061 67.2985 5.563 68.2355 6.516C69.1035 7.383 69.4505 8.561 69.4505 10.208V19.584H66.0305V13.397C66.0305 11.785 65.9265 10.641 65.7705 10.035C65.5965 9.428 65.3365 8.995 64.9895 8.752C64.6425 8.492 64.1215 8.319 63.6185 8.319C62.9303 8.32805 62.2647 8.56588 61.7265 8.995C61.2225 9.497 60.8585 10.104 60.6155 10.971C60.5115 11.404 60.4415 12.34 60.4415 13.899V19.567H56.9175V0H56.9875ZM82.1735 5.511H85.6975V19.653H82.1735V18.111C81.4965 18.787 80.8025 19.22 80.1255 19.567C79.4171 19.8443 78.6643 19.991 77.9035 20C76.0985 20 74.4665 19.324 73.1815 17.85C71.8115 16.395 71.2035 14.697 71.2035 12.547C71.2035 10.329 71.8805 8.613 73.1815 7.14C74.4665 5.771 76.0115 5.095 77.9035 5.095C78.7715 5.095 79.5175 5.269 80.2985 5.598C81.0795 5.944 81.7565 6.378 82.3475 7.054V5.51L82.1735 5.511ZM78.4585 8.405C77.3485 8.405 76.4805 8.839 75.6985 9.619C74.9741 10.4488 74.5791 11.5155 74.5885 12.617C74.5885 13.83 74.9355 14.835 75.6985 15.615C76.4615 16.395 77.3135 16.828 78.4585 16.828C78.9786 16.8354 79.4942 16.7309 79.9704 16.5216C80.4466 16.3123 80.8722 16.0031 81.2185 15.615C81.9995 14.835 82.3295 13.813 82.3295 12.53C82.3295 11.317 81.9825 10.312 81.2195 9.532C80.5245 8.769 79.5685 8.405 78.4585 8.405ZM87.9895 5.511H91.0795V7.314C91.4265 6.638 91.8605 6.1 92.3645 5.702C92.8675 5.355 93.4745 5.199 94.1695 5.199C94.6035 5.199 95.1065 5.303 95.6275 5.546L94.5175 8.631C94.0825 8.457 93.7355 8.284 93.4755 8.284C92.9715 8.284 92.4335 8.631 92.1035 9.324C91.7565 10 91.4965 11.3 91.4965 13.258V19.688H87.9725L87.9895 5.511ZM98.9245 0.277H102.535V5.511H104.688V8.596H102.535V19.757H98.9245V8.597H97.1015V5.51H98.9065V0.277H98.9245Z" fill="#A0A3A4"/>
</svg>