<svg xmlns="http://www.w3.org/2000/svg" width="148" height="20" viewBox="0 0 148 20" fill="none">
  <path d="M21.9298 19.938H36.0098V16.216H26.1848V11.65H34.3308V7.925H26.1848V3.722H36.0698V0H21.9298V19.938ZM52.9678 12.55L43.7428 0H37.3908L39.3688 2.523V20H43.6218V6.907L53.1488 19.937H57.2228V0H52.9678V12.55ZM15.5198 9.68C17.3888 9.32 18.9468 7.578 18.9468 5.118C18.9338 2.46 17.0178 0 13.1828 0H0.839844L2.75584 2.46V19.947H13.6128C17.4508 19.947 19.4268 17.546 19.4268 14.542C19.3548 12.072 17.6628 9.97 15.5198 9.68ZM7.01184 3.747H12.3448C13.7848 3.747 14.6818 4.59 14.6818 5.849C14.6818 7.108 13.7838 7.95 12.3448 7.95H7.01184V3.747ZM12.5218 16.237H7.01184V11.65H12.5218C14.1418 11.65 15.0398 12.671 15.0398 13.933C15.0398 15.373 14.0798 16.215 12.5228 16.215L12.5218 16.237ZM119.476 12.55H121.694V14.895C120.547 15.8466 119.109 16.3755 117.619 16.393C114.083 16.393 111.569 13.693 111.569 10.03C111.569 6.367 114.083 3.663 117.619 3.663C118.528 3.67098 119.421 3.90593 120.216 4.34653C121.012 4.78713 121.685 5.41942 122.174 6.186L125.529 4.312C124.093 2.042 121.572 0 117.56 0C111.927 0 107.254 3.903 107.254 9.97C107.254 16.037 111.868 19.938 117.56 19.938C119.098 19.9638 120.623 19.6548 122.03 19.0325C123.437 18.4102 124.691 17.4894 125.707 16.334V8.95H116.6L119.476 12.55ZM100.307 12.55L91.0788 0H84.7268L86.7048 2.523V20H90.9608V6.907L100.487 19.937H104.559V0H100.307V12.55ZM139.789 0H131.583L133.558 2.523L133.2 3.482L126.848 20H131.642L132.889 16.634H141.471L142.718 20H147.509L139.789 0ZM133.982 12.853L137.097 4.263L140.213 12.853H133.982ZM82.2708 0H78.0158V20H82.2708V0ZM74.5998 3.422V0H59.6158V3.722H69.0248L59.6158 16.515V19.937H74.7798V16.215H65.1318L74.5998 3.422Z" fill="#A0A3A4"/>
</svg>