<svg width="721" height="200" viewBox="0 0 721 200" fill="none" xmlns="http://www.w3.org/2000/svg">
<g clip-path="url(#clip0_8_2)">
<path d="M49.1016 0C56.3673 16.7578 63.1641 24.3359 53.2032 47.7734C42.6954 72.5391 32.0704 76.6406 39.0235 83.2812C46.0157 89.9219 59.7266 92.6562 59.7266 92.6562C59.7266 92.6562 59.4532 97.0312 56.4845 101.172C53.5157 105.313 54.0235 111.367 59.922 114.961C64.1798 117.539 65.0391 118.008 65.1954 118.047C65.1173 118.125 62.8907 120.156 61.5626 124.609C60.0782 129.531 63.2813 134.297 68.6329 135.82C73.9845 137.383 76.211 137.93 77.3438 139.531C78.7501 141.445 77.6563 141.836 77.2657 149.688C76.8751 157.539 75.3126 165.117 85.7032 171.055C96.0548 176.992 114.141 171.758 129.102 162.578C141.914 154.688 173.75 144.375 198.203 157.695C180.938 179.766 155.352 195.313 125.391 199.102C65.2345 206.719 10.3126 164.18 2.69539 104.023C-2.61711 62.0312 16.5626 22.5781 49.1016 0Z" fill="url(#paint0_linear_8_2)"/>
<path d="M220.25 190L294.688 15.25H295.062L369.5 190H335.563L323 160H265.625L253.063 190H220.25ZM276.875 133H311.75L304.438 115.75C302.438 111.125 300.563 106.687 298.813 102.437C297.188 98.0625 295.625 93 294.125 87.25C292.75 92.875 291.25 97.875 289.625 102.25C288 106.625 286.187 111.125 284.188 115.75L276.875 133ZM423.904 193.75C416.029 193.75 408.592 191.875 401.592 188.125C394.592 184.25 388.904 178.687 384.529 171.437C380.279 164.062 378.154 155.187 378.154 144.813V77.5H410.779V140.5C410.779 146.75 412.654 152.312 416.404 157.187C420.279 162.062 425.654 164.5 432.529 164.5C438.154 164.5 443.154 162.5 447.529 158.5C452.029 154.375 454.279 148.5 454.279 140.875V77.5H486.904V190H457.279V178.188C453.279 183.187 448.342 187.062 442.467 189.812C436.717 192.438 430.529 193.75 423.904 193.75ZM511.713 190V77.5H540.963V96.8125C544.838 90.3125 549.713 85.3125 555.588 81.8125C561.588 78.1875 568.588 76.375 576.588 76.375L583.713 105.25C581.338 104.5 578.65 104.125 575.65 104.125C566.275 104.125 558.713 107.187 552.963 113.312C547.213 119.312 544.338 127.937 544.338 139.187V190H511.713ZM644.867 193C634.492 193 625.055 190.312 616.555 184.937C608.055 179.562 601.242 172.437 596.117 163.562C591.117 154.562 588.617 144.625 588.617 133.75C588.617 122.875 591.117 112.937 596.117 103.938C601.242 94.9375 608.055 87.8125 616.555 82.5625C625.055 77.1875 634.492 74.5 644.867 74.5C652.117 74.5 658.742 75.8125 664.742 78.4375C670.742 80.9375 675.867 84.4375 680.117 88.9375V77.5H708.242V190H680.117V178.563C675.867 183.062 670.742 186.625 664.742 189.25C658.742 191.75 652.117 193 644.867 193ZM648.805 164.312C654.305 164.312 659.305 162.937 663.805 160.188C668.305 157.437 671.867 153.75 674.492 149.125C677.242 144.5 678.617 139.375 678.617 133.75C678.617 128.125 677.242 123 674.492 118.375C671.867 113.75 668.305 110.062 663.805 107.312C659.305 104.562 654.305 103.187 648.805 103.187C643.305 103.187 638.305 104.562 633.805 107.312C629.305 110.062 625.68 113.75 622.93 118.375C620.305 123 618.992 128.125 618.992 133.75C618.992 139.375 620.305 144.5 622.93 149.125C625.68 153.75 629.305 157.437 633.805 160.188C638.305 162.937 643.305 164.312 648.805 164.312Z" fill="black"/>
</g>
<defs>
<linearGradient id="paint0_linear_8_2" x1="-1.2833" y1="43.5477" x2="170.2" y2="205.323" gradientUnits="userSpaceOnUse">
<stop stop-color="#FAE093"/>
<stop offset="0.3409" stop-color="#FF45AC"/>
<stop offset="0.749" stop-color="#414381"/>
<stop offset="1" stop-color="#016385"/>
</linearGradient>
<clipPath id="clip0_8_2">
<rect width="721" height="200" fill="white"/>
</clipPath>
</defs>
</svg>
